<?xml version="1.0" encoding="UTF-8"?>
<svg version="1.1" xmlns="http://www.w3.org/2000/svg" width="1991" height="790">
<path d="M0 0 C657.03 0 1314.06 0 1991 0 C1991 260.7 1991 521.4 1991 790 C1333.97 790 676.94 790 0 790 C0 529.3 0 268.6 0 0 Z " fill="#FDFDFD" transform="translate(0,0)"/>
<path d="M0 0 C28.76611183 -0.08032734 28.76611183 -0.08032734 43.09042931 -0.10050774 C50.80266187 -0.11154216 58.51485065 -0.12549675 66.22705078 -0.15087891 C72.99628247 -0.17314673 79.76546677 -0.1846025 86.53473282 -0.18975449 C89.10440948 -0.19342136 91.67408384 -0.20058092 94.24374008 -0.21146011 C131.53008744 -0.36289795 131.53008744 -0.36289795 146.9375 5.25 C147.82228027 5.56155029 148.70706055 5.87310059 149.61865234 6.1940918 C165.44119609 11.913698 178.1541464 20.67172471 186 36 C193.23673619 52.39884257 193.43152514 73.37170066 188.39453125 90.51171875 C184.47954255 100.30467368 177.8115284 109.12564773 169 115 C169.97839844 115.54527344 170.95679688 116.09054687 171.96484375 116.65234375 C185.81256859 124.54158637 197.90818519 134.59116121 202.38989258 150.62866211 C207.31826389 169.7840325 207.14130929 191.37879595 196.88769531 208.84155273 C185.74509912 226.30864827 170.1699245 234.57213521 150.5559597 239.44313145 C141.89396162 241.33032644 133.0156576 241.13880047 124.19677734 241.11352539 C122.83571373 241.11324272 121.47464996 241.11340282 120.11358643 241.1139679 C116.44899259 241.11425274 112.78443203 241.1084069 109.11984587 241.10139394 C105.27884309 241.09510802 101.4378394 241.09455248 97.59683228 241.09336853 C90.33688472 241.09027058 83.07695236 241.08207805 75.81701148 241.07201904 C65.99707882 241.05871075 56.17714195 241.05334558 46.35720253 241.04751682 C30.90479032 241.03813701 15.45241018 241.01820787 0 241 C0 210.64 0 180.28 0 149 C9.9 149 19.8 149 30 149 C30 170.78 30 192.56 30 215 C47.83601871 214.87994439 47.83601871 214.87994439 65.671875 214.7421875 C72.95309782 214.68202755 80.23429555 214.62388018 87.515625 214.578125 C93.39013964 214.54107922 99.26451435 214.49466822 105.13890839 214.44193649 C107.37299886 214.42349461 109.6071192 214.40834958 111.84125519 214.39665604 C137.98992929 214.42717375 137.98992929 214.42717375 161.5 203.75 C171.71491768 192.51359055 173.76633508 180.48483931 173.34765625 165.80078125 C172.74956537 154.76718346 167.79973573 146.40639908 159.9375 138.875 C146.94943018 128.55186891 128.88893697 126.06307043 112.765625 125.17578125 C111 125 111 125 110 124 C109.92820036 122.48071962 109.91607993 120.95832518 109.9375 119.4375 C109.94652344 118.61121094 109.95554687 117.78492188 109.96484375 116.93359375 C109.97644531 116.29550781 109.98804688 115.65742188 110 115 C111.34578125 114.88785156 111.34578125 114.88785156 112.71875 114.7734375 C125.63086067 113.41286386 139.36486904 110.30612648 149 101 C149.82371094 100.23429687 149.82371094 100.23429687 150.6640625 99.453125 C155.24997473 94.70907787 157.07098402 89.2124207 159 83 C159.33 82.01 159.66 81.02 160 80 C160.28423122 76.31753948 160.27773345 72.62970721 160.3125 68.9375 C160.34150391 67.93783203 160.37050781 66.93816406 160.40039062 65.90820312 C160.48453448 55.94686488 157.60591854 46.70628025 150.47265625 39.4453125 C143.85228768 33.4104187 136.53694676 30.46164352 127.81152344 28.78808594 C126.94508083 28.61972103 126.07863823 28.45135612 125.18593979 28.27788925 C115.47529262 26.5315501 105.85494139 26.39511646 96.015625 26.390625 C94.09363449 26.37559134 92.17165664 26.35885367 90.24969482 26.34051514 C85.26539414 26.29741028 80.28126739 26.27697108 75.29681396 26.26177979 C69.27654491 26.23850384 63.25646239 26.18614305 57.23634338 26.13883972 C48.15751455 26.07066743 39.07921701 26.03870084 30 26 C30 47.78 30 69.56 30 92 C20.1 92 10.2 92 0 92 C0 61.64 0 31.28 0 0 Z " fill="#041C43" transform="translate(195,275)"/>
<path d="M0 0 C0.77686661 -0.0049649 1.55373322 -0.00992981 2.35414124 -0.01504517 C4.90073567 -0.02953732 7.44726775 -0.03644835 9.99389648 -0.04199219 C10.87250776 -0.04481956 11.75111904 -0.04764694 12.6563549 -0.05056 C17.30964325 -0.06550292 21.962901 -0.07476227 26.61621094 -0.07910156 C31.38113335 -0.0845672 36.1457673 -0.10856897 40.91059971 -0.13707352 C44.61104606 -0.15585841 48.31142524 -0.16091393 52.01191521 -0.16243744 C53.76629137 -0.16543081 55.52066733 -0.17334446 57.2749958 -0.18662262 C78.502704 -0.33577658 100.95205357 2.85787598 117.17749023 17.91113281 C127.69623461 29.30461684 130.29676082 43.41210774 130.14306641 58.46899414 C130.14350449 59.62181381 130.14394257 60.77463348 130.14439392 61.96238708 C130.14232594 65.72282642 130.11908932 69.48280389 130.09545898 73.24316406 C130.08985595 75.87017066 130.0855892 78.49718042 130.08259583 81.12419128 C130.07332869 87.30038077 130.04878851 93.47640802 130.01854736 99.65252656 C129.98483563 106.69257432 129.9684755 113.73263047 129.95346105 120.77273905 C129.92223311 135.23562007 129.86957827 149.69837416 129.80249023 164.16113281 C114.31188589 164.20793799 98.82128687 164.24316331 83.3306284 164.26475716 C76.13738701 164.27505187 68.94418967 164.28907753 61.75097656 164.31201172 C55.47839783 164.33200104 49.20585101 164.34486236 42.93324131 164.3493098 C39.61463931 164.35190784 36.2961494 164.35903969 32.97757149 164.37259293 C29.26494095 164.38714991 25.55249832 164.38910896 21.83984375 164.38818359 C20.20524704 164.39896942 20.20524704 164.39896942 18.53762817 164.40997314 C5.50183632 164.37490739 -6.93875634 161.02831748 -16.68188477 151.82910156 C-28.49844479 138.82479452 -30.2323864 124.20198983 -29.68188477 107.29003906 C-28.92320014 94.64721111 -23.60052272 85.07415002 -14.44750977 76.47363281 C1.06123384 63.55458453 20.4458842 64.0051477 39.49780273 64.06347656 C41.29954997 64.06534473 43.10129772 64.06676675 44.90304565 64.06776428 C49.61459793 64.07155807 54.32611873 64.0813611 59.03765869 64.09246826 C63.85770238 64.10275032 68.67775121 64.10727638 73.49780273 64.11230469 C82.9327123 64.12298657 92.36759863 64.14002471 101.80249023 64.16113281 C101.67590691 61.77510315 101.54052751 59.39010804 101.40014648 57.00488281 C101.34824158 56.00086426 101.34824158 56.00086426 101.29528809 54.9765625 C100.81415002 47.0655888 98.99963956 40.88054629 93.23999023 35.28613281 C82.15982811 26.56563484 67.18435422 25.84681523 53.66577148 25.93066406 C52.42868942 25.93112228 51.19160736 25.93158051 49.91703796 25.93205261 C47.30584755 25.93505977 44.69465869 25.94289968 42.08349609 25.95532227 C38.17140014 25.97337254 34.25954507 25.97583281 30.34741211 25.97558594 C14.80368611 25.9980997 -0.67158764 26.4109433 -16.19750977 27.16113281 C-16.19750977 18.58113281 -16.19750977 10.00113281 -16.19750977 1.16113281 C-10.676472 0.47100309 -5.51460465 0.00862859 0 0 Z " fill="#051D45" transform="translate(586.197509765625,351.8388671875)"/>
<path d="M0 0 C1.26392578 -0.01611328 2.52785156 -0.03222656 3.83007812 -0.04882812 C26.99057834 -0.06068706 47.67430345 8.1061365 64.1875 24.3125 C64.826875 24.92738281 65.46625 25.54226563 66.125 26.17578125 C80.18247422 40.82944299 83.18798215 61.70436603 83.3125 81.125 C83.31733398 81.84284668 83.32216797 82.56069336 83.32714844 83.30029297 C83.31345884 87.49420045 82.8856567 91.12355983 82.1875 95.3125 C37.6375 95.3125 -6.9125 95.3125 -52.8125 95.3125 C-50.76694315 109.63139798 -48.19789571 120.16172232 -36.59765625 129 C-26.72534616 135.40020103 -15.12739286 138.37859157 -3.4519043 138.51782227 C-2.72940994 138.52772186 -2.00691559 138.53762146 -1.26252747 138.54782104 C1.11270939 138.57927205 3.48796621 138.6041282 5.86328125 138.62890625 C7.51523848 138.64948996 9.16719062 138.6704868 10.81913757 138.69187927 C15.15752013 138.74695362 19.49594906 138.79642717 23.83441162 138.84472656 C28.26530055 138.89504875 32.69612251 138.95067877 37.12695312 139.00585938 C45.81374688 139.11326183 54.50059784 139.21425546 63.1875 139.3125 C63.1875 147.8925 63.1875 156.4725 63.1875 165.3125 C52.92002699 165.40345237 42.65282858 165.47658782 32.38504124 165.51974869 C27.61550803 165.54048055 22.84626854 165.56852926 18.0769043 165.61425781 C13.46029275 165.6582366 8.84396081 165.68174486 4.22715569 165.69200897 C2.47998602 165.69930826 0.73282883 165.7135568 -1.01421928 165.73542023 C-23.86134252 166.0095468 -46.03774076 160.79002731 -63.0625 144.5625 C-80.31975083 126.43146432 -85.28387819 103.05156792 -84.96484375 78.84765625 C-84.40978143 57.0167342 -76.82571718 36.65600188 -61.50390625 20.9453125 C-44.45228233 4.73944912 -22.90850428 -0.05787899 0 0 Z " fill="#0699C8" transform="translate(1550.8125,350.6875)"/>
<path d="M0 0 C1.22589844 0.23332031 2.45179687 0.46664063 3.71484375 0.70703125 C21.92854567 4.82344066 37.63845976 16.50235145 48 32 C50.39910493 36.20954059 52.28228788 40.47194822 54 45 C54.41507813 46.07636719 54.83015625 47.15273438 55.2578125 48.26171875 C59.97252222 63.24658287 58 76.58487714 58 93 C13.45 93 -31.1 93 -77 93 C-74.39807956 107.31056242 -71.16128379 116.27986669 -60.6875 126.1875 C-47.06311736 135.37603713 -32.57951245 136.44814551 -16.6640625 136.51171875 C-15.04738037 136.5286117 -13.430711 136.54676792 -11.8140564 136.56611633 C-7.60896804 136.61312246 -3.4039314 136.6432483 0.80133057 136.66955566 C5.11244932 136.69961398 9.42339046 136.7460557 13.734375 136.79101562 C22.15617623 136.87648506 30.57796094 136.94255825 39 137 C39 145.58 39 154.16 39 163 C28.9760183 163.06819273 18.95219454 163.1230541 8.92803192 163.15543652 C4.27175675 163.17099042 -0.3843494 163.1920371 -5.04052734 163.22631836 C-9.54689661 163.2592832 -14.05310489 163.27692991 -18.55958557 163.28463173 C-20.2656965 163.29010948 -21.97180017 163.30080261 -23.67784119 163.31719017 C-44.50328798 163.50899467 -64.29817921 160.40306259 -81 147 C-82.02480469 146.23623047 -82.02480469 146.23623047 -83.0703125 145.45703125 C-89.45253757 140.38879369 -93.63073933 133.76586504 -98 127 C-98.43441406 126.38382813 -98.86882812 125.76765625 -99.31640625 125.1328125 C-102.83531849 119.80614534 -104.08247236 113.1150272 -105.52636719 106.97460938 C-105.83991417 105.66740937 -106.17888726 104.3660261 -106.54394531 103.07226562 C-108.51062039 95.58118252 -108.4842782 87.94511578 -108.5 80.25 C-108.5023465 79.52100494 -108.50469299 78.79200989 -108.5071106 78.04092407 C-108.48383736 60.53057619 -105.38465298 44.53407629 -95 30 C-94.41734375 29.14535156 -93.8346875 28.29070312 -93.234375 27.41015625 C-81.30354141 11.14311633 -63.24546846 2.99961691 -44 -1 C-43.21036865 -1.176521 -42.4207373 -1.35304199 -41.60717773 -1.53491211 C-28.44415073 -3.88303145 -13.04989186 -2.56840875 0 0 Z " fill="#057FDE" transform="translate(1378,353)"/>
<path d="M0 0 C-0.13995514 3.20861774 -0.28802257 6.41681288 -0.4375 9.625 C-0.47681641 10.52863281 -0.51613281 11.43226563 -0.55664062 12.36328125 C-0.77578458 16.98216146 -1.1008851 21.45153636 -2 26 C-9.3957588 25.24788894 -9.3957588 25.24788894 -12.3203125 24.0480957 C-33.01280024 15.95472381 -58.55685238 14.74564886 -80.5625 14.6875 C-81.86968994 14.68194092 -83.17687988 14.67638184 -84.52368164 14.6706543 C-101.27359253 14.79475914 -118.28091061 16.40736976 -132 27 C-140.68655453 36.10479604 -142.38546931 45.04975776 -142.28125 57.38671875 C-141.66048705 65.36179837 -138.9009824 72.48386428 -133 78 C-117.12840858 89.93445246 -94.92929222 92.01636968 -75.97265625 95.47265625 C-13.27282297 106.91405341 -13.27282297 106.91405341 4.875 130.75 C8.61346681 136.38415162 10.40962349 142.47603614 12 149 C12.19335938 149.76699219 12.38671875 150.53398437 12.5859375 151.32421875 C15.56337976 170.56523712 11.16041354 188.12257251 -0.03125 203.85546875 C-13.62260621 220.21073881 -35.12555743 227.28068393 -55.56370544 229.78312683 C-60.53833031 230.22595615 -65.52852266 230.18456248 -70.51953125 230.203125 C-71.73154709 230.20882507 -72.94356293 230.21452515 -74.19230652 230.22039795 C-76.76174048 230.22982484 -79.33118641 230.23637272 -81.90063477 230.24023438 C-85.73411922 230.24980433 -89.56703491 230.28079276 -93.40039062 230.3125 C-122.62549891 230.43871791 -152.66484401 228.1330358 -180 217 C-180.50803456 207.94945834 -178.98718981 199.7649265 -177 191 C-173.7 191.33 -170.4 191.66 -167 192 C-167 192.66 -167 193.32 -167 194 C-166.3915625 194.02578125 -165.783125 194.0515625 -165.15625 194.078125 C-159.45171853 194.44724174 -154.20889264 195.38519066 -148.6875 196.875 C-130.50039752 201.67072953 -112.23298073 202.46700592 -93.50097656 202.33618164 C-89.844181 202.31229872 -86.18810544 202.31568679 -82.53125 202.32226562 C-80.16405822 202.31669522 -77.79686945 202.30958938 -75.4296875 202.30078125 C-73.82152664 202.30214836 -73.82152664 202.30214836 -72.18087769 202.30354309 C-58.18404345 202.17391361 -44.9958167 199.96198767 -33.12890625 192.3046875 C-31 191 -31 191 -28 190 C-26.99083967 188.23408113 -26.99083967 188.23408113 -26 186 C-25.360625 185.13375 -24.72125 184.2675 -24.0625 183.375 C-19.08303073 175.22677756 -17.84301043 166.43391493 -19 157 C-21.15541828 148.6976481 -24.65484005 142.5554117 -32 138 C-52.15964705 126.6888344 -78.08459428 124.47522187 -100.47485352 120.15893555 C-101.90843956 119.87927444 -101.90843956 119.87927444 -103.37098694 119.59396362 C-105.16570866 119.24395675 -106.96133973 118.89856537 -108.75804138 118.55886841 C-113.69215752 117.59166305 -118.38083805 116.31993582 -123.12593079 114.65281677 C-125.28667402 113.90013944 -127.47315231 113.32302898 -129.6875 112.75 C-145.87564016 107.89104036 -160.01639199 98.26717147 -168.1875 83.25 C-168.81679009 81.84431305 -169.41899768 80.42632328 -170 79 C-170.37253906 78.15953125 -170.74507812 77.3190625 -171.12890625 76.453125 C-177.2462815 60.33906336 -175.69807398 40.67920075 -169 25 C-166.9463787 21.07987552 -164.65979697 17.53186155 -162 14 C-160.9171875 12.453125 -160.9171875 12.453125 -159.8125 10.875 C-145.82041658 -4.83779271 -124.50895954 -11.30910514 -104.21118164 -12.81689453 C-72.83115579 -14.60622163 -29.07383632 -14.53691816 0 0 Z " fill="#0564E3" transform="translate(1226,287)"/>
<path d="M0 0 C9.24 0 18.48 0 28 0 C28 49.5 28 99 28 150 C32.6326734 145.94641077 36.94774903 142.09865554 41.21875 137.75 C43.71896185 135.29365151 46.37680516 133.03690632 49.03125 130.75 C51.50619257 128.55005105 53.80713674 126.20618555 56.12524414 123.84350586 C57.93223688 122.06663359 59.79344934 120.40563127 61.71484375 118.75390625 C65.93292025 115.08597153 70.00706663 111.28353143 74.0625 107.4375 C75.55048574 106.03093732 77.0387732 104.62469377 78.52734375 103.21875 C79.27097168 102.51621094 80.01459961 101.81367188 80.78076172 101.08984375 C84.80583894 97.299452 88.85714664 93.5370204 92.91430664 89.78100586 C93.48141357 89.25385986 94.04852051 88.72671387 94.6328125 88.18359375 C95.20475342 87.67111084 95.77669434 87.15862793 96.3659668 86.63061523 C98.0615285 85.04462738 98.0615285 85.04462738 99.30004883 83.05883789 C101.42240237 80.15786077 103.26501094 78.3208887 106.90991211 77.64675903 C112.74767729 77.11885365 118.58853212 77.36438377 124.4375 77.5625 C126.23626771 77.59764294 128.03510116 77.62957672 129.83398438 77.65820312 C134.22428771 77.73503298 138.61141891 77.85564922 143 78 C141.8918839 81.3243483 141.06438063 82.03653703 138.4375 84.21875 C134.15934072 87.84870333 130.07252161 91.64224027 126 95.5 C121.35411242 99.9008896 116.66359383 104.21809742 111.81054688 108.390625 C109.96563145 110.03054982 108.23054833 111.74025231 106.5 113.5 C104.18013674 115.85865805 101.80493516 118.08092442 99.296875 120.23828125 C95.02001834 123.95690178 90.87489196 127.80178903 86.75 131.6875 C85.70972656 132.66299805 85.70972656 132.66299805 84.6484375 133.65820312 C81.92637024 136.21600771 79.22832464 138.76222484 76.640625 141.45703125 C75 143 75 143 73 143 C73 143.66 73 144.32 73 145 C71.3203125 146.62109375 71.3203125 146.62109375 69.125 148.4375 C66.53806278 150.58400884 64.88815626 152.16776562 63 155 C66.48614262 158.58419039 70.01154655 162.06117525 73.8125 165.3125 C77.02333755 168.07618029 80.02267165 170.98619596 83 174 C85.91626603 176.95183025 88.84605835 179.80388859 92 182.5 C96.07623219 185.98452107 99.79550873 189.78081981 103.5625 193.59375 C105.65000635 195.65449345 107.77169223 197.59515626 110 199.5 C114.0748335 202.98332542 117.79292992 206.77818708 121.55859375 210.58984375 C124.27202727 213.26854532 127.10777023 215.74608118 130.00390625 218.22265625 C133.06056592 220.94433952 135.89108969 223.88162476 138.76171875 226.796875 C141.45089037 229.44380833 144.2736167 231.88753084 147.17578125 234.296875 C149.37492148 236.35003376 151.14006215 238.63950412 153 241 C147.64762694 241.27435277 142.29943655 241.47258946 136.94165039 241.60424805 C135.12451833 241.65917598 133.30786366 241.73395602 131.49243164 241.82983398 C115.59360759 242.64773773 115.59360759 242.64773773 110.56494141 238.74853516 C107.72856259 236.09305602 105.39326765 233.05491888 103 230 C101.63935585 228.73199019 100.24621537 227.49726227 98.8125 226.3125 C93.93087406 222.13677109 89.49511395 217.54384665 85 212.9609375 C81.80863283 209.7321715 78.596954 206.60269274 75.1484375 203.6484375 C70.0371297 199.24696413 65.35699317 194.42647912 60.625 189.625 C58.8486586 187.82324599 57.07012661 186.02364817 55.2890625 184.2265625 C54.51256348 183.43846191 53.73606445 182.65036133 52.93603516 181.83837891 C51.12774043 179.94237659 51.12774043 179.94237659 49 179 C49 178.34 49 177.68 49 177 C48.45085937 176.78085937 47.90171875 176.56171875 47.3359375 176.3359375 C43.70826406 174.26124801 41.08953028 171.1722721 38.2421875 168.1640625 C34.95603274 164.76713847 32.07127925 162.71418617 28 160 C28 186.73 28 213.46 28 241 C18.76 241 9.52 241 0 241 C0 161.47 0 81.94 0 0 Z " fill="#04AEB3" transform="translate(1672,275)"/>
<path d="M0 0 C1.41988472 -0.00744736 1.41988472 -0.00744736 2.86845398 -0.01504517 C6.02306841 -0.02973039 9.17763228 -0.03648515 12.33227539 -0.04199219 C14.52974956 -0.04774573 16.72722372 -0.05350344 18.92469788 -0.05926514 C23.55103794 -0.06979809 28.17736055 -0.07562331 32.80371094 -0.07910156 C38.6861561 -0.0845409 44.56836442 -0.10846006 50.45073605 -0.13707352 C55.0022901 -0.15586774 59.55378956 -0.1609147 64.1053791 -0.16243744 C66.27035354 -0.16543523 68.43532768 -0.17336454 70.6002636 -0.18662262 C95.57597154 -0.32844423 119.5380223 1.79736365 138.66040039 19.59472656 C149.40730247 31.42171931 151.15797092 44.4414247 151.10595703 59.71777344 C151.10610306 60.85035583 151.10624908 61.98293823 151.10639954 63.14984131 C151.10570601 66.87237501 151.09793989 70.59485791 151.09008789 74.31738281 C151.08822172 76.90669731 151.08679876 79.49601217 151.08580017 82.08532715 C151.08237948 88.19078302 151.07450772 94.2962181 151.06445068 100.40166616 C151.05324425 107.35697681 151.04776771 114.31228835 151.04275525 121.26760578 C151.03232379 135.56545939 151.01399651 149.86329176 150.99243164 164.16113281 C141.75243164 164.16113281 132.51243164 164.16113281 122.99243164 164.16113281 C122.98308594 160.89698486 122.97374023 157.63283691 122.96411133 154.26977539 C122.93024717 143.44908149 122.87464571 132.6285764 122.8085289 121.80803394 C122.76912783 115.25165156 122.73690306 108.69540201 122.72143555 102.13891602 C122.70622066 95.80395371 122.67168885 89.46935679 122.62412262 83.13455772 C122.60935868 80.72546259 122.60139351 78.31631529 122.60054779 75.90717506 C123.34487644 54.2270738 123.34487644 54.2270738 113.79321289 35.58300781 C90.42758757 17.13379389 37.92112959 25.43949602 18.99243164 25.16113281 C18.99243164 71.03113281 18.99243164 116.90113281 18.99243164 164.16113281 C9.42243164 164.16113281 -0.14756836 164.16113281 -10.00756836 164.16113281 C-10.03068535 142.92584494 -10.04854655 121.69056009 -10.05938053 100.45526218 C-10.06454391 90.59606562 -10.07158741 80.73687701 -10.08300781 70.87768555 C-10.09295337 62.28765465 -10.09942148 53.6976295 -10.10165685 45.107593 C-10.10296418 40.55632086 -10.10605141 36.00506518 -10.11329842 31.45379829 C-10.12005661 27.17508462 -10.12218573 22.89639428 -10.12067604 18.61767578 C-10.12095246 17.04262605 -10.12295877 15.46757558 -10.12677383 13.89253044 C-10.13170796 11.75149029 -10.13056771 9.61053966 -10.12782288 7.46949768 C-10.12874467 6.26840142 -10.12966646 5.06730516 -10.13061619 3.82981205 C-9.86673519 -1.89327741 -4.52022032 0.00559452 0 0 Z " fill="#041D45" transform="translate(838.007568359375,351.8388671875)"/>
<path d="M0 0 C0.72278137 -0.00200409 1.44556274 -0.00400818 2.19024658 -0.006073 C30.5492315 -0.02525617 30.5492315 -0.02525617 43.375 4.25 C43.375 12.5 43.375 20.75 43.375 29.25 C41.1475 29.105625 38.92 28.96125 36.625 28.8125 C34.74554687 28.69068359 34.74554687 28.69068359 32.828125 28.56640625 C29.375 28.25 29.375 28.25 27.59692383 27.74072266 C22.54287267 26.62451094 17.16911233 27.06411898 12.00561523 27.06469727 C9.8440316 27.06253159 7.6829764 27.04441828 5.52148438 27.02539062 C-11.90911874 26.88667679 -11.90911874 26.88667679 -26.625 35.25 C-29.95919144 40.13583732 -31.73960736 45.21605545 -31.78321838 51.12846375 C-31.79790161 52.63657623 -31.79790161 52.63657623 -31.81288147 54.17515564 C-31.81863693 55.2771077 -31.8243924 56.37905975 -31.83032227 57.5144043 C-31.84517166 59.25607376 -31.84517166 59.25607376 -31.86032104 61.03292847 C-31.89196901 64.88000432 -31.91670661 68.72709252 -31.94140625 72.57421875 C-31.96197293 75.23794483 -31.98292137 77.90166515 -32.00437927 80.56538391 C-32.0542929 86.86575967 -32.09923666 93.16616072 -32.14240164 99.46658593 C-32.19178538 106.63946319 -32.24669929 113.81229475 -32.30208123 120.98512781 C-32.41588086 135.74004302 -32.52199424 150.49500513 -32.625 165.25 C-42.195 165.25 -51.765 165.25 -61.625 165.25 C-61.69291105 149.30692267 -61.74809419 133.36396132 -61.78043652 117.42078114 C-61.79585762 110.01687731 -61.81685525 102.61307022 -61.85131836 95.20922852 C-61.88136738 88.75056392 -61.9006095 82.29196944 -61.90726548 75.83323687 C-61.91115172 72.41833125 -61.92018348 69.00362608 -61.94219017 65.58878517 C-61.96412525 61.76195253 -61.96696016 57.93552847 -61.96557617 54.10864258 C-61.976362 52.99588959 -61.98714783 51.8831366 -61.9982605 50.73666382 C-61.93973111 35.67531633 -58.45006954 23.58169162 -48.109375 12.58203125 C-34.78228493 0.0721684 -17.25613848 0.02324043 0 0 Z " fill="#071F47" transform="translate(493.625,350.75)"/>
<path d="M0 0 C1.77932373 0.00560466 3.55865214 0.00987064 5.33798218 0.01286316 C9.99046922 0.02424347 14.64266925 0.05365093 19.29504395 0.0869751 C24.89356049 0.12326067 30.49217372 0.13686963 36.09077454 0.15433502 C44.56852765 0.18329319 53.04565268 0.24082748 61.5234375 0.29296875 C61.5234375 16.79296875 61.5234375 33.29296875 61.5234375 50.29296875 C41.95925161 50.41329518 41.95925161 50.41329518 33.57421875 50.43945312 C27.86856644 50.45733728 22.16305955 50.47841929 16.45751953 50.51928711 C11.85392037 50.55205289 7.25047731 50.56985786 2.64677048 50.57760048 C0.89662598 50.58311323 -0.85351066 50.59387779 -2.6035881 50.61015892 C-25.33956061 50.81312548 -25.33956061 50.81312548 -33.9375 43.90625 C-39.32440459 38.25957083 -40.8111877 32.28484944 -41.0390625 24.60546875 C-40.67336295 15.27544189 -37.77873574 11.14740139 -31.0625 4.87109375 C-21.56285746 -0.92627118 -10.71792723 -0.09970987 0 0 Z " fill="#FAFBFB" transform="translate(626.4765625,439.70703125)"/>
<path d="M0 0 C9.24 0 18.48 0 28 0 C28 54.12 28 108.24 28 164 C18.76 164 9.52 164 0 164 C0 109.88 0 55.76 0 0 Z " fill="#031B41" transform="translate(758,352)"/>
<path d="M0 0 C7.6601868 6.43405129 11.95077007 13.45855022 14.4296875 23.11328125 C14.4296875 26.41328125 14.4296875 29.71328125 14.4296875 33.11328125 C-20.8803125 33.11328125 -56.1903125 33.11328125 -92.5703125 33.11328125 C-92.5703125 21.52446581 -90.19491848 13.79019362 -82.5703125 5.11328125 C-82.06886719 4.50742187 -81.56742188 3.9015625 -81.05078125 3.27734375 C-62.44271932 -17.45864741 -21.03535379 -15.4408448 0 0 Z " fill="#FBFDFD" transform="translate(1589.5703125,387.88671875)"/>
<path d="M0 0 C1.19423584 0.00684814 2.38847168 0.01369629 3.61889648 0.02075195 C12.29240946 0.17866726 19.70169229 1.00910076 27.75 4.4375 C28.65234375 4.79972656 29.5546875 5.16195313 30.484375 5.53515625 C39.56018035 9.59176622 47.59600043 16.26612056 51.75 25.4375 C54.17493345 32.14288278 54.75 37.14414539 54.75 44.4375 C19.77 44.4375 -15.21 44.4375 -51.25 44.4375 C-50.20882802 30.90226428 -48.16665178 21.63445616 -38.14453125 12.5234375 C-26.57518036 3.1644101 -14.79138276 -0.12970346 0 0 Z " fill="#FAFCFD" transform="translate(1352.25,376.5625)"/>
<path d="M0 0 C4.10472902 3.00346026 7.96908909 6.94991173 9.5625 11.875 C10.19477816 18.19778157 9.22714368 22.63018886 5.5625 27.875 C2.14246585 31.48255561 -1.0916581 33.66851175 -6.14453125 34.11328125 C-12.42456119 34.26337002 -16.6005672 34.34916284 -21.4375 29.875 C-24.37254761 26.70197556 -25.37207695 25.1366922 -26.4375 20.875 C-49.5375 20.875 -72.6375 20.875 -96.4375 20.875 C-96.4375 17.905 -96.4375 14.935 -96.4375 11.875 C-73.3375 11.875 -50.2375 11.875 -26.4375 11.875 C-25.7775 10.225 -25.1175 8.575 -24.4375 6.875 C-17.98780415 -1.78117074 -10.33897015 -3.38366296 0 0 Z " fill="#0B2249" transform="translate(291.4375,379.125)"/>
<path d="M0 0 C4.7959411 2.04478109 7.89596044 5.28721367 10.5625 9.7265625 C12.64592693 14.93512982 12.68872453 19.95382944 11.640625 25.421875 C9.32744684 30.17426987 6.00791003 33.49259846 1.640625 36.421875 C0.980625 36.421875 0.320625 36.421875 -0.359375 36.421875 C-0.359375 37.081875 -0.359375 37.741875 -0.359375 38.421875 C-12.03964571 39.04574703 -12.03964571 39.04574703 -16.796875 36.796875 C-17.6425 36.013125 -18.488125 35.229375 -19.359375 34.421875 C-19.90335938 33.93976563 -20.44734375 33.45765625 -21.0078125 32.9609375 C-24.86587799 29.39267974 -26.14040301 27.17165788 -26.5625 21.87109375 C-26.6617226 16.02522868 -26.47960983 11.55516455 -23.359375 6.421875 C-16.4650994 -0.61603134 -9.82205216 -2.40672801 0 0 Z " fill="#081F46" transform="translate(779.359375,275.578125)"/>
<path d="M0 0 C1.39014816 0.00067978 1.39014816 0.00067978 2.80838013 0.00137329 C4.26440643 -0.00366463 4.26440643 -0.00366463 5.74984741 -0.00880432 C8.97656515 -0.01834659 12.20323117 -0.02025913 15.42996216 -0.02133179 C17.66337099 -0.02454231 19.89677961 -0.02790622 22.13018799 -0.03141785 C26.81947314 -0.03741747 31.50873984 -0.03925692 36.19802856 -0.03866577 C42.21641765 -0.03856415 48.23468874 -0.05221261 54.25304985 -0.06943798 C58.86833238 -0.08053966 63.48358625 -0.08258554 68.09888077 -0.08205605 C70.31811047 -0.08323908 72.53734084 -0.08767883 74.75655746 -0.09538841 C77.85724975 -0.1051505 80.95768397 -0.10232511 84.05838013 -0.09628296 C84.98109711 -0.10190247 85.90381409 -0.10752197 86.85449219 -0.11331177 C87.69858643 -0.10911728 88.54268066 -0.10492279 89.41235352 -0.1006012 C90.5124088 -0.10141835 90.5124088 -0.10141835 91.63468742 -0.10225201 C93.56277466 0.14663696 93.56277466 0.14663696 96.56277466 2.14663696 C94.6091216 4.10029003 91.62877713 3.2668582 89.02876282 3.27105713 C88.0879335 3.26746185 87.14710419 3.26386658 86.17776489 3.26016235 C84.69987991 3.26038139 84.69987991 3.26038139 83.19213867 3.26060486 C79.91852659 3.25990528 76.64497062 3.25211081 73.37136841 3.24429321 C71.10835298 3.24242919 68.84533714 3.24100521 66.58232117 3.24000549 C60.61298518 3.23617906 54.64367334 3.22634771 48.67434692 3.21530151 C42.58833137 3.20509008 36.50231193 3.20050845 30.41629028 3.19546509 C18.46510777 3.18472556 6.51394322 3.16764764 -5.43722534 3.14663696 C-5.43460693 4.25652481 -5.43198853 5.36641266 -5.42929077 6.50993347 C-5.35876785 39.74913355 -5.58493699 72.98239552 -5.90078735 106.21994019 C-5.96270281 112.78598601 -6.02210278 119.35205464 -6.08175659 125.91812134 C-6.19787726 138.66098242 -6.31654741 151.40381826 -6.43722534 164.14663696 C-6.76722534 164.14663696 -7.09722534 164.14663696 -7.43722534 164.14663696 C-7.46055234 142.91134945 -7.47820354 121.67606404 -7.48903751 100.44076633 C-7.4942009 90.58156977 -7.50124439 80.72238116 -7.51266479 70.8631897 C-7.52261035 62.2731588 -7.52907846 53.68313365 -7.53131384 45.09309715 C-7.53262116 40.54182501 -7.53570839 35.99056933 -7.5429554 31.43930244 C-7.54971359 27.16058877 -7.55184272 22.88189843 -7.55033302 18.60317993 C-7.55060944 17.0281302 -7.55261576 15.45307973 -7.55643082 13.87803459 C-7.56136494 11.73699444 -7.56022469 9.59604381 -7.55747986 7.45500183 C-7.55840165 6.25390557 -7.55932344 5.05280931 -7.56027317 3.8153162 C-7.32491497 -1.28916674 -4.42805049 0.02252426 0 0 Z " fill="#303E62" transform="translate(835.4372253417969,351.8533630371094)"/>
<path d="M0 0 C9.24 0 18.48 0 28 0 C28 54.12 28 108.24 28 164 C26.02 163.67 24.04 163.34 22 163 C23.32 162.67 24.64 162.34 26 162 C26 109.2 26 56.4 26 2 C17.42 2 8.84 2 0 2 C0 1.34 0 0.68 0 0 Z " fill="#182347" transform="translate(758,352)"/>
<path d="M0 0 C37.29 0 74.58 0 113 0 C113 0.33 113 0.66 113 1 C111.82381104 1.02505615 110.64762207 1.0501123 109.43579102 1.07592773 C105.08785378 1.16982806 100.74008284 1.27009048 96.39233398 1.37231445 C94.50760782 1.41572933 92.62284064 1.45739943 90.73803711 1.49731445 C88.03486751 1.55485893 85.33190564 1.61859804 82.62890625 1.68359375 C81.78099014 1.70030624 80.93307404 1.71701874 80.0594635 1.73423767 C76.21707924 1.46409195 76.21707924 1.46409195 73 3 C70.76070114 3.09436529 68.5183825 3.11742327 66.27709961 3.11352539 C65.5746965 3.11367142 64.8722934 3.11381744 64.14860535 3.1139679 C61.81648722 3.11326872 59.484448 3.10547617 57.15234375 3.09765625 C55.53951562 3.09579208 53.92668693 3.09436818 52.31385803 3.09336853 C48.06084643 3.08954323 43.80786876 3.07971285 39.55487061 3.06866455 C35.2182257 3.05845069 30.88157533 3.05387096 26.54492188 3.04882812 C18.02993231 3.03809059 9.51497037 3.02101403 1 3 C0.67 2.01 0.34 1.02 0 0 Z " fill="#D3D8E0" transform="translate(603,516)"/>
<path d="M0 0 C0.66 0.99 1.32 1.98 2 3 C1.34 5.97 0.68 8.94 0 12 C34.65 12 69.3 12 105 12 C105 9.03 105 6.06 105 3 C105.33 3 105.66 3 106 3 C106 6.3 106 9.6 106 13 C70.69 13 35.38 13 -1 13 C-1 4 -1 4 0 0 Z " fill="#DBEFF4" transform="translate(1498,408)"/>
<path d="M0 0 C0.66 0.33 1.32 0.66 2 1 C-10.84214613 14.01833411 -10.84214613 14.01833411 -17.171875 19.390625 C-19.93237602 21.82080965 -22.4715118 24.45868957 -25.04296875 27.0859375 C-26.90974204 28.91172375 -28.84469466 30.54812301 -30.875 32.1875 C-33.65283094 34.49708609 -35.05331323 36.42362776 -36 40 C-36.99 39.01 -37.98 38.02 -39 37 C-37.54782324 35.49403892 -36.08807139 33.99537896 -34.625 32.5 C-33.81289062 31.6646875 -33.00078125 30.829375 -32.1640625 29.96875 C-30 28 -30 28 -28 28 C-28 27.34 -28 26.68 -28 26 C-26.49609375 24.51953125 -26.49609375 24.51953125 -24.4375 22.8125 C-21.6746132 20.46720242 -19.03320243 18.09170595 -16.5 15.5 C-13.42875244 12.3726566 -10.18614751 9.50503569 -6.8671875 6.64453125 C-4.46487962 4.52869105 -2.22791166 2.2975339 0 0 Z " fill="#DFF6F6" transform="translate(1773,392)"/>
<path d="M0 0 C-3.18789056 2.12526037 -3.84538171 2.23682404 -7.47143555 2.13525391 C-8.37214279 2.11508209 -9.27285004 2.09491028 -10.20085144 2.0741272 C-11.16968765 2.04193085 -12.13852386 2.0097345 -13.13671875 1.9765625 C-14.13129593 1.95153656 -15.12587311 1.92651062 -16.15058899 1.90072632 C-19.32990458 1.81849847 -22.5086016 1.7219191 -25.6875 1.625 C-27.84177154 1.56676333 -29.99606852 1.50945999 -32.15039062 1.453125 C-37.43393686 1.31291565 -42.71704615 1.16091863 -48 1 C-48 0.67 -48 0.34 -48 0 C-43.41451467 -0.17030479 -38.82881547 -0.33051087 -34.24267578 -0.48217773 C-32.68919864 -0.5348787 -31.13580553 -0.59013123 -29.58251953 -0.64819336 C-19.62632006 -1.01825249 -9.93313511 -0.95545402 0 0 Z " fill="#0E274F" transform="translate(528,353)"/>
<path d="M0 0 C1.03901761 3.7355157 1.14650063 7.1177333 1 11 C0.67 11.33 0.34 11.66 0 12 C-0.15858842 14.14386657 -0.25129298 16.29266838 -0.31640625 18.44140625 C-0.35830078 19.74658203 -0.40019531 21.05175781 -0.44335938 22.39648438 C-0.48317608 23.7851533 -0.52288825 25.17382522 -0.5625 26.5625 C-0.60567989 27.95509183 -0.649294 29.34767028 -0.69335938 30.74023438 C-0.79985876 34.16004801 -0.90186923 37.57993763 -1 41 C-1.33 41 -1.66 41 -2 41 C-2.04979112 36.44679318 -2.08590298 31.89374819 -2.10986328 27.34033203 C-2.11986197 25.79440547 -2.13346538 24.24849754 -2.15087891 22.70263672 C-2.17539951 20.46837745 -2.18654451 18.23437025 -2.1953125 16 C-2.20563507 15.31945557 -2.21595764 14.63891113 -2.22659302 13.93774414 C-2.22773223 8.95983593 -1.34113528 4.75198108 0 0 Z " fill="#3F95E7" transform="translate(1272,408)"/>
<path d="M0 0 C3.3 0.33 6.6 0.66 10 1 C6 3 6 3 3 3 C3 3.99 3 4.98 3 6 C2.01 6 1.02 6 0 6 C-0.33 6.99 -0.66 7.98 -1 9 C-0.67 6.03 -0.34 3.06 0 0 Z " fill="#3E86EB" transform="translate(1049,478)"/>
<path d="M0 0 C1.32 0 2.64 0 4 0 C4.33 2.97 4.66 5.94 5 9 C3.35 8.67 1.7 8.34 0 8 C0 5.36 0 2.72 0 0 Z " fill="#C2CDD9" transform="translate(301,391)"/>
<path d="M0 0 C-3.57469625 3.57469625 -8.02894421 3.96917283 -12.9375 4.125 C-13.948125 4.08375 -14.95875 4.0425 -16 4 C-13.71185277 1.71185277 -12.19248378 1.24548839 -9.125 0.3125 C-8.26132813 0.04050781 -7.39765625 -0.23148437 -6.5078125 -0.51171875 C-3.91305068 -1.01692938 -2.469215 -0.85561171 0 0 Z " fill="#1C88E2" transform="translate(1329,355)"/>
<path d="M0 0 C1.32 1.32 2.64 2.64 4 4 C-3.92 4 -11.84 4 -20 4 C-20 3.67 -20 3.34 -20 3 C-13.4 3 -6.8 3 0 3 C0 2.01 0 1.02 0 0 Z " fill="#0FB5B7" transform="translate(1821,512)"/>
<path d="M0 0 C0.33 0 0.66 0 1 0 C1 4.29 1 8.58 1 13 C-2.63 12.67 -6.26 12.34 -10 12 C-10 11.67 -10 11.34 -10 11 C-2.25 9.875 -2.25 9.875 0 11 C0 7.37 0 3.74 0 0 Z " fill="#041235" transform="translate(535,366)"/>
<path d="M0 0 C0 0.66 0 1.32 0 2 C-5.61 1.34 -11.22 0.68 -17 0 C-17 -0.33 -17 -0.66 -17 -1 C-11.17007283 -2.58998014 -5.79262549 -1.22873874 0 0 Z " fill="#196FE1" transform="translate(1195,304)"/>
<path d="M0 0 C-0.33 0.66 -0.66 1.32 -1 2 C-3.33744294 2.46806645 -5.69739079 2.82669794 -8.0625 3.125 C-9.99802734 3.37636719 -9.99802734 3.37636719 -11.97265625 3.6328125 C-13.47119141 3.81457031 -13.47119141 3.81457031 -15 4 C-10.49798811 -0.70378273 -6.24727909 -0.10412132 0 0 Z " fill="#061436" transform="translate(615,438)"/>
<path d="M0 0 C1.60781893 0.7631861 3.21113138 1.53587058 4.8125 2.3125 C5.70582031 2.74175781 6.59914063 3.17101562 7.51953125 3.61328125 C9.78931933 4.88221789 11.29248171 6.06556898 13 8 C8.00786149 7.53198701 3.87036007 5.08284263 0 2 C0 1.34 0 0.68 0 0 Z " fill="#11244E" transform="translate(686,359)"/>
<path d="M0 0 C0.33 0 0.66 0 1 0 C0.125 6.75 0.125 6.75 -1 9 C-1.66 9 -2.32 9 -3 9 C-3.33 10.32 -3.66 11.64 -4 13 C-5 10 -5 10 -4.00390625 7.51953125 C-3.52824219 6.62621094 -3.05257813 5.73289062 -2.5625 4.8125 C-2.08941406 3.91144531 -1.61632813 3.01039063 -1.12890625 2.08203125 C-0.75636719 1.39496094 -0.38382813 0.70789063 0 0 Z " fill="#1C6DEB" transform="translate(1061,305)"/>
<path d="M0 0 C0.33 0.99 0.66 1.98 1 3 C-2.465 4.485 -2.465 4.485 -6 6 C-6.66 5.34 -7.32 4.68 -8 4 C-2.25 0 -2.25 0 0 0 Z " fill="#132448" transform="translate(456,357)"/>
<path d="M0 0 C0.66 0.66 1.32 1.32 2 2 C-0.46153846 6.8 -0.46153846 6.8 -3.1875 7.8125 C-3.785625 7.874375 -4.38375 7.93625 -5 8 C-3.8141763 4.62496331 -2.72426311 2.35277269 0 0 Z " fill="#142A53" transform="translate(271,381)"/>
<path d="M0 0 C0.66 0.66 1.32 1.32 2 2 C0.92643323 3.15498897 -0.15929788 4.29867867 -1.25 5.4375 C-1.85328125 6.07558594 -2.4565625 6.71367187 -3.078125 7.37109375 C-5.10048016 9.08516306 -6.41270605 9.59358878 -9 10 C-8.2575 9.278125 -7.515 8.55625 -6.75 7.8125 C-4.30709485 5.31407427 -2.1318953 2.76356798 0 0 Z " fill="#DEEEFB" transform="translate(1225,490)"/>
<path d="M0 0 C-3.90028225 2.60018816 -7.47434569 2.15085514 -12 2 C-8.24587786 -1.75412214 -4.98458941 -1.01957511 0 0 Z " fill="#203257" transform="translate(468,355)"/>
<path d="M0 0 C0.66 1.32 1.32 2.64 2 4 C0 7 0 7 -2.125 7.6875 C-2.74375 7.790625 -3.3625 7.89375 -4 8 C-2.87548273 5.0280615 -1.77706209 2.66559313 0 0 Z " fill="#253459" transform="translate(441,368)"/>
<path d="M0 0 C-1.0975223 2.99324263 -1.67682892 3.84610901 -4.625 5.25 C-5.40875 5.4975 -6.1925 5.745 -7 6 C-7 5.01 -7 4.02 -7 3 C-2.77777778 0 -2.77777778 0 0 0 Z " fill="#1C88E7" transform="translate(1309,361)"/>
<path d="M0 0 C0.88492145 2.47778006 1.11637742 3.66056586 0.25 6.1875 C-1 8 -1 8 -4 9 C-2.94124926 5.59687262 -1.99097846 2.98646769 0 0 Z " fill="#3B91E8" transform="translate(1280,388)"/>
<path d="M0 0 C0.66 0.33 1.32 0.66 2 1 C0.02 3.31 -1.96 5.62 -4 8 C-4.33 7.01 -4.66 6.02 -5 5 C-3.35 3.35 -1.7 1.7 0 0 Z " fill="#18B4B8" transform="translate(1759,370)"/>
<path d="M0 0 C1.3921875 0.0928125 1.3921875 0.0928125 2.8125 0.1875 C2.8125 1.1775 2.8125 2.1675 2.8125 3.1875 C-0.1575 3.1875 -3.1275 3.1875 -6.1875 3.1875 C-3.1875 0.1875 -3.1875 0.1875 0 0 Z " fill="#0881D2" transform="translate(1414.1875,512.8125)"/>
<path d="M0 0 C5.75 -0.125 5.75 -0.125 8 1 C8 1.66 8 2.32 8 3 C5.36 2.67 2.72 2.34 0 2 C0 1.34 0 0.68 0 0 Z " fill="#1E3050" transform="translate(932,377)"/>
<path d="M0 0 C1.6752357 0.28718326 3.34080104 0.63128912 5 1 C6.99897128 1.33944795 8.99875639 1.67421616 11 2 C11 2.33 11 2.66 11 3 C2.42857143 3.28571429 2.42857143 3.28571429 -1 1 C-0.67 0.67 -0.34 0.34 0 0 Z " fill="#344463" transform="translate(520,376)"/>
<path d="M0 0 C-4.73778043 2.36889021 -6.63970918 3.04875255 -12 2 C-8.09971775 -0.60018816 -4.52565431 -0.15085514 0 0 Z " fill="#495675" transform="translate(605,417)"/>
<path d="M0 0 C0.66 0 1.32 0 2 0 C0.125 4.75 0.125 4.75 -1 7 C-1.66 7 -2.32 7 -3 7 C-3 5.35 -3 3.7 -3 2 C-2.34 2 -1.68 2 -1 2 C-0.67 1.34 -0.34 0.68 0 0 Z " fill="#1F2C4C" transform="translate(380,367)"/>
</svg>
